<?xml version="1.0" encoding="UTF-8" standalone="no"?>
<svg
   xmlns:dc="http://purl.org/dc/elements/1.1/"
   xmlns:cc="http://creativecommons.org/ns#"
   xmlns:rdf="http://www.w3.org/1999/02/22-rdf-syntax-ns#"
   xmlns:svg="http://www.w3.org/2000/svg"
   xmlns="http://www.w3.org/2000/svg"
   viewBox="0 0 55.764874 55.763749"
   height="55.763748"
   width="55.764874"
   xml:space="preserve"
   version="1.1"
   id="svg2"><metadata
     id="metadata8"><rdf:RDF><cc:Work
         rdf:about=""><dc:format>image/svg+xml</dc:format><dc:type
           rdf:resource="http://purl.org/dc/dcmitype/StillImage" /><dc:title></dc:title></cc:Work></rdf:RDF></metadata><defs
     id="defs6" /><g
     transform="matrix(1.25,0,0,-1.25,-896.56333,354.15124)"
     id="g10"><path
       d="m 748.04366,263.78799 c -1.0336,0 -1.9043,0.873 -1.9043,1.904 0,1.09 0.8707,1.905 1.9043,1.905 1.0332,0 1.8496,-0.815 1.8496,-1.905 0,-1.031 -0.8164,-1.904 -1.8496,-1.904 l 0,0 z m -8.4867,-7.508 c 2.6105,0 4.6781,-2.066 4.6781,-4.732 0,-2.664 -2.0133,-4.733 -4.6781,-4.733 -2.6664,0 -4.734,2.069 -4.734,4.733 0,2.666 2.0676,4.732 4.734,4.732 l 0,0 z m -6.7465,15.506 -6.2566,-4.242 -1.0336,1.578 6.2562,4.242 1.034,-1.578 z m 19.6937,-4.242 -6.2562,4.242 1.0879,1.578 6.2577,-4.242 -1.0894,-1.578 z m -19.5851,-1.852 c 0,-1.031 -0.8164,-1.904 -1.9043,-1.904 -1.0336,0 -1.8488,0.873 -1.8488,1.904 0,1.09 0.8152,1.905 1.8488,1.905 1.0879,0 1.9043,-0.815 1.9043,-1.905 l 0,0 z m -15.6684,4.787 0,-18.986 c 0,-3.537 1.4145,-6.744 3.7543,-9.029 2.3395,-2.342 5.5489,-3.754 9.0848,-3.754 l 18.9328,0 c 3.5363,0 6.747,1.412 9.031,3.754 2.394,2.285 3.809,5.492 3.809,9.029 l 0,18.986 c 0,3.537 -1.415,6.748 -3.809,9.034 -2.284,2.337 -5.4947,3.808 -9.031,3.808 l -18.9328,0 c -3.5359,0 -6.7453,-1.471 -9.0848,-3.808 -2.3398,-2.286 -3.7543,-5.497 -3.7543,-9.034 l 0,0"
       style="fill:#545051;fill-opacity:1;fill-rule:evenodd;stroke:none"
       id="path36" /></g></svg>